<?xml version="1.0" ?><!DOCTYPE svg  PUBLIC '-//W3C//DTD SVG 1.1//EN'  'http://www.w3.org/Graphics/SVG/1.1/DTD/svg11.dtd'><svg xmlns="http://www.w3.org/2000/svg" xmlns:xlink="http://www.w3.org/1999/xlink"><symbol viewBox="0 0 512 512" id="centaur" xmlns="http://www.w3.org/2000/svg"><path d="M140.26 80.403h-2.841c-5.848 0-10.589-4.741-10.589-10.589 0-5.848 4.741-10.589 10.589-10.589h2.841v21.178zM201.464 80.403h2.841c5.848 0 10.589-4.741 10.589-10.589 0-5.848-4.741-10.589-10.589-10.589h-2.841v21.178z" fill="#E8897B"/><path d="M400.092 315.139s1.104-15.166 13.039-24.541c14.771-11.603 37.048-7.535 47.002 8.393 5.063 8.1 8.369 20.303 5.986 38.619-.548 4.207-1.588 8.324-2.819 12.385-2.041 6.73-4.826 19.463 1.412 24.311 2.87 2.231 4.849 5.406 4.849 9.041v.637c0 2.225-.662 4.391-1.944 6.208-2.868 4.069-8.942 10.585-18.417 10.585 0 0-25.752 2.252-33.537-24.625l-15.571-61.013z" fill="#F9C8B2"/><path d="M409.512 352.047l6.15 24.104c7.785 26.877 33.537 24.626 33.537 24.626 9.475 0 15.549-6.517 18.417-10.586 1.282-1.818 1.944-3.983 1.944-6.208v-.637c0-3.635-1.979-6.81-4.849-9.041-6.238-4.849-3.453-17.58-1.412-24.311 1.231-4.061 2.271-8.178 2.819-12.386 2.383-18.315-.924-30.519-5.986-38.618-4.582-7.332-11.784-12.114-19.654-14.048 2.645 18.136 2.309 51.531-30.966 67.105z" fill="#CE957D"/><path d="M314.213 390.077s46.711 47.909 14.373 95.817c0 0-1.998 3.482-3.427 8.255-1.521 5.085 2.288 10.214 7.597 10.214h38.279s28.814-62.784-8.913-114.286h-47.909z" fill="#56232B"/><path d="M331.865 480.505a72.46 72.46 0 01-3.279 5.39s-1.998 3.482-3.427 8.254c-1.521 5.086 2.288 10.215 7.597 10.215h38.279s4.295-9.391 7.396-23.858h-46.566z" fill="#333345"/><linearGradient gradientUnits="userSpaceOnUse" id="aa" x1="120.511" x2="423.721" y1="371.44" y2="371.44"><stop offset="0" stop-color="#a06260"/><stop offset="1" stop-color="#82494c"/></linearGradient><path d="M176.016 245.422l-55.505 15.408v133.984c0 3.357.474 6.702 1.458 9.912 3.948 12.876 13.831 51.68 2.787 88.157-1.73 5.715 2.5 11.479 8.472 11.479H160.2c3.974 0 7.694-1.977 9.851-5.314 3.573-5.531 8.702-15.271 11.392-28.718.378-1.892-1.566-34.848-3.828-57.216-.881-8.718 5.964-16.273 14.726-16.273h15.102c7.746 0 14.17 5.945 14.76 13.669 1.588 20.796 3.023 60.479-6.284 84.376-1.78 4.57 1.595 9.477 6.5 9.477h27.921c4.791 0 9.189-2.628 11.422-6.867 3.287-6.244 7.803-15.882 9.931-25.208.37-1.624.476-3.292.419-4.957l-2.012-59.96c-.202-6.027 4.629-11.023 10.66-11.023h60.531c5.751 0 11.18 2.645 14.679 7.208 10.483 13.673 28.345 45.925 7.854 89.188-2.556 5.395 1.245 11.62 7.214 11.62h25.737c3.657 0 7.065-1.796 9.099-4.835 4.851-7.251 13.508-22.073 17.436-40.458.988-4.627.178-9.473-2.135-13.601l-.963-1.72a19.743 19.743 0 01-2.516-9.64v-83.632c0-22.619-13.83-42.938-34.871-51.233l-154.032-60.728-52.777 6.905z" fill="url(#aa)"/><path d="M215.917 494.887c-1.78 4.57 1.595 9.477 6.499 9.477h27.921c4.791 0 9.189-2.628 11.422-6.867 3.287-6.244 7.803-15.882 9.931-25.209.37-1.623.476-3.291.419-4.956l-1.453-43.298c-6.581 18.326-21.722 49.102-51.28 59.186-.945 4.153-2.069 8.1-3.459 11.667zM420.209 443.75a19.746 19.746 0 01-2.516-9.64v-83.632c0-15.415-6.432-29.752-17.184-39.953-4.081 19.88-21.863 68.104-98.775 85.822h39.555c5.751 0 11.18 2.645 14.679 7.208 10.483 13.673 28.345 45.925 7.854 89.188-2.556 5.395 1.245 11.62 7.214 11.62h25.737c3.657 0 7.065-1.796 9.099-4.835 4.851-7.251 13.508-22.073 17.436-40.458.988-4.628.178-9.473-2.135-13.602l-.964-1.718zM178.883 427.077c-4.609 15.357-17.41 42.59-52.052 57.736-.596 2.695-1.263 5.39-2.075 8.07-1.73 5.715 2.5 11.479 8.472 11.479H160.2c3.974 0 7.694-1.977 9.851-5.314 3.573-5.531 8.702-15.271 11.392-28.718.303-1.522-.9-23.191-2.56-43.253zM199.413 377.481c-13.063 0-23.694 10.772-23.254 23.829.22 6.527 1.455 11.804 1.455 11.804-.881-8.717 5.964-16.272 14.726-16.272h15.102c7.746 0 14.17 5.945 14.76 13.669.391-3.868.529-7.285.47-10.302-.245-12.645-10.612-22.728-23.259-22.728zM349.964 286.291l-121.173-47.773-8.795 1.15c-3.619 16.16-8.45 30.617-14.875 38.688-.001-.001 96.205 37.859 144.843 7.935z" fill="#773E41"/><linearGradient gradientUnits="userSpaceOnUse" id="ab" x1="172.016" x2="172.016" y1="115.157" y2="338.265"><stop offset=".005" stop-color="#ffc3b0"/><stop offset="1" stop-color="#e8897b"/></linearGradient><path d="M291.014 136.248c-9.404-15.611-27.328-32.264-61.007-32.264H115.862s-.308-.006-.831 0h-1.426l.002.038c-10.197.43-52.206 5.017-67.189 51.051-6.563 20.165-5.341 43.87 6.179 61.674 8.195 12.665 23.343 25.578 46.543 29.302 9.046 1.453 17.095-6.014 16.708-15.169l-.017-.389c-.249-5.9-4.045-10.983-9.544-13.134-10.376-4.058-22.39-12.173-21.783-31.991.848-27.667 24.669-33.191 31.371-34.202l4.635 109.666s29.232 20.523 54.681 31.72c5.761 2.534 12.456 1.438 17.206-2.692 11.375-9.888 32.205-28.994 39.583-42.344l-1.973-96.673v-1.25s20.783 2.638 29.653 19.565c3.086 5.89 4.131 12.718 3.139 19.294-1.12 7.429-5.029 17.235-17.217 22.278-5.952 2.462-9.967 8.112-9.967 14.553 0 10.018 9.324 17.604 19.062 15.251 18.577-4.489 41.063-17.171 46.078-52.942 2.485-17.736-.503-36.004-9.741-51.342z" fill="url(#ab)"/><path d="M146.477 192.132h-8.746a3.184 3.184 0 110-6.368h8.746a3.184 3.184 0 110 6.368zM208.651 192.132h-8.746a3.184 3.184 0 110-6.368h8.746a3.183 3.183 0 110 6.368zM213.329 123.123v-19.139H165.32v47.778h19.369c15.817 0 28.64-12.823 28.64-28.639zM231.98 247.513l-1.833-89.839s-4.048 94.329-25.026 120.681c10.347-9.755 21.785-21.66 26.859-30.842z" fill="#E8897B"/><linearGradient gradientUnits="userSpaceOnUse" id="ac" x1="170.862" x2="170.862" y1="38.63" y2="130.149"><stop offset=".005" stop-color="#ffc3b0"/><stop offset="1" stop-color="#e8897b"/></linearGradient><path d="M170.862 153.17c-18.92 0-34.258-15.338-34.258-34.258V41.895c0-18.92 15.338-34.258 34.258-34.258s34.258 15.338 34.258 34.258v77.018c0 18.92-15.338 34.257-34.258 34.257z" fill="url(#ac)"/><linearGradient gradientUnits="userSpaceOnUse" id="ad" x1="136.604" x2="205.12" y1="116.787" y2="116.787"><stop offset="0" stop-color="#a06260"/><stop offset="1" stop-color="#82494c"/></linearGradient><path d="M136.604 114.661v3.078c0 18.246 13.77 34.178 31.978 35.357 19.953 1.292 36.539-14.509 36.539-34.184v-4.251c0-18.92-15.338-34.258-34.258-34.258-18.921 0-34.259 15.338-34.259 34.258z" fill="url(#ad)"/><circle cx="158.53" cy="59.226" fill="#333345" r="5.213"/><circle cx="183.194" cy="59.226" fill="#333345" r="5.214"/><path d="M133.228 504.363H160.2c3.974 0 7.694-1.977 9.851-5.314 2.594-4.017 6-10.281 8.707-18.544h-51.06c-.751 4.129-1.696 8.269-2.94 12.379-1.732 5.715 2.498 11.479 8.47 11.479zM222.417 504.363h27.921c4.791 0 9.189-2.628 11.422-6.867 2.319-4.406 5.236-10.508 7.508-16.991H219.98c-1.045 5.173-2.372 10.042-4.062 14.382-1.78 4.57 1.594 9.476 6.499 9.476zM368.725 480.505a105.735 105.735 0 01-4.903 12.238c-2.556 5.395 1.245 11.62 7.214 11.62h25.737c3.657 0 7.065-1.796 9.099-4.835 2.756-4.12 6.73-10.748 10.379-19.023h-47.526z" fill="#4D4D5F"/></symbol><symbol viewBox="0 0 512 512" id="orc" xmlns="http://www.w3.org/2000/svg"><path d="M210.189 128.823h-67.598c-6.844 0-10.403 8.673-5.77 14.058 4.778 5.553 9.7 12.77 13.274 21.682 2.659 6.628 6.81 12.542 12.556 16.32 8.537 5.613 22.949 11.048 45.2 8.049l2.338-60.109z" fill="#BFC29F"/><path d="M209.598 144.039h-26.885c-3.206 0-5.016 4.182-3.07 7.094 4.607 6.896 13.678 16.564 28.971 18.212l.984-25.306z" fill="#9B9B6E"/><linearGradient gradientUnits="userSpaceOnUse" id="ba" x1="232.83" x2="259.681" y1="254.765" y2="624.415"><stop offset="0" stop-color="#bfc29f"/><stop offset="1" stop-color="#9b9b6e"/></linearGradient><path d="M205.592 213.492s3.921 46.448-51.901 71.304c0 0-39.176 17.523-54.032 50.894-2.321 5.215-.803 11.399 3.633 14.991 12.162 9.846 36.579 33.507 45.976 70.804 1.61 6.393 4.723 12.301 9.136 17.197 14.639 16.245 51.85 45.688 121.832 32.35 21.285-4.057 41.101-14.125 56.65-29.216 18.053-17.52 38.701-45.765 43.474-85.937.673-5.663-1.233-11.322-5.075-15.537-12.225-13.411-41.75-43.832-70.979-59.03l-98.714-67.82z" fill="url(#ba)"/><path d="M187.798 261.938l-3.615 13.483c60.492 46.4 85.95 152.344 94.126 195.946.646-.117 1.274-.211 1.927-.336 9.68-1.845 19.027-4.994 27.837-9.232-21.641-145.106-120.275-199.861-120.275-199.861z" fill="#9B9B6E"/><path d="M354.545 331.107l22.309 11.215a20.215 20.215 0 00-1.568-1.98 414.013 414.013 0 00-19.701-20.156l-.007-.006a362.585 362.585 0 00-10.999-10.074c-12.208-10.729-26.264-21.51-40.271-28.794l-98.715-67.82-.003.008c-4.589 12.435 2.374 31.789 12.775 48.438 7.366 11.79 23.901 25.086 36.909 29.99l85.336 32.174-14.568 51.379 10.867 66.313c8.868-8.608 18.352-19.819 26.279-33.745-3.868-17.496-16.855-35.744-16.855-35.744 4.506-15.113 6.917-29.976 8.212-41.198z" fill="#9B9B6E"/><linearGradient gradientUnits="userSpaceOnUse" id="bb" x1="275.873" x2="317.94" y1="51.247" y2="753.852"><stop offset="0" stop-color="#bfc29f"/><stop offset="1" stop-color="#9b9b6e"/></linearGradient><path d="M365.252 208.862c.225-2.5.357-5.025.357-7.584V108.95c0-46.126-37.392-83.518-83.518-83.518-46.125 0-83.518 37.392-83.518 83.518v92.328c0 46.126 37.393 83.518 83.518 83.518h30.131c33.154 0 60.029-26.876 60.029-60.029v-5.171c.001-4.797-2.88-8.907-6.999-10.734z" fill="url(#bb)"/><path d="M247.789 136.346h29.514c2.764 0 4.792 2.628 4.035 5.286-1.309 4.596-4.35 10.953-11.357 13.816-4.998 2.042-10.766 1.62-15.549-.882-3.775-1.975-8.162-5.545-10.915-11.964-1.272-2.965 1.045-6.256 4.272-6.256z" fill="#FCFAFF"/><circle cx="295.606" cy="171.71" fill="#9B9B6E" r="5.088"/><circle cx="312.906" cy="171.71" fill="#9B9B6E" r="5.088"/><path d="M269.856 127.188h-22.134a3.562 3.562 0 01-3.562-3.562v-52.54a4.704 4.704 0 014.705-4.705 4.674 4.674 0 014.435 3.141c2.018 5.828 7.163 18.382 16.069 25.65 2.467 2.013 4.049 4.906 4.049 8.09v20.363a3.562 3.562 0 01-3.562 3.563zM250.012 165.604h14.161a4.92 4.92 0 014.921 4.92c0 1.509-.68 2.919-1.864 3.853-3.352 2.642-10.343 8.782-13.53 16.248-.646 1.511-2.165 2.456-3.808 2.456a4.205 4.205 0 01-4.205-4.205V169.93a4.326 4.326 0 014.325-4.326z" fill="#C9519C"/><path d="M291.24 120.866l7.004 6.957a3.444 3.444 0 004.887-.033l6.831-6.975c1.117-1.141.096-3.042-1.472-2.739l-4.977 1.708a9.057 9.057 0 01-5.845.012l-4.973-1.684c-1.578-.305-2.595 1.621-1.455 2.754z" fill="#9B9B6E"/><path d="M360.247 135.029h47.633c4.823 0 7.331 6.907 4.065 11.195a63.737 63.737 0 00-9.354 17.268c-1.873 5.279-4.798 9.989-8.848 12.998-6.016 4.47-16.17 8.799-31.85 6.411l-1.646-47.872z" fill="#7F7D56"/><path d="M305.848 284.796h6.375c33.154 0 60.029-26.876 60.029-60.029v-5.171c0-3.203-1.303-6.081-3.384-8.196h-27.63c1.075 16.379-.246 56.096-35.39 73.396zM368.868 211.399c-1.035-1.053-2.248-1.931-3.616-2.538.225-2.5.357-5.025.357-7.584V108.95c0-35.277-21.883-65.424-52.805-77.664 9.89 13.553 23.883 44.689 23.872 112.356h-18.682c.794 14.91 11.206 18.953 18.292 19.984-.541 14.452-1.658 30.311-3.508 47.772h36.09z" fill="#9B9B6E"/><path d="M347.321 136.346h-29.515c-2.764 0-4.791 2.628-4.035 5.286 1.31 4.596 4.35 10.953 11.358 13.816 4.997 2.042 10.765 1.62 15.549-.882 3.774-1.975 8.161-5.545 10.914-11.964 1.273-2.965-1.043-6.256-4.271-6.256zM265.277 211.399s.939-12.41 7.992-24.136c1.752-2.914 5.953-3.002 7.725-.1 3.446 5.649 8.039 14.893 8.197 24.235h-23.914zM328.032 211.399s.94-12.41 7.993-24.136c1.752-2.914 5.953-3.002 7.725-.1 3.445 5.649 8.039 14.893 8.197 24.235h-23.915z" fill="#FCFAFF"/><path d="M163.858 278.674c16.51 13.607 59.9 53.616 75.678 109.641l22.794-20.08s-12.267-55.184-74.532-106.297c-4.037-3.314-9.815-3.508-14.024-.415l-9.646 7.087c-3.356 2.465-3.483 7.415-.27 10.064zM330.4 296.537c-.863 12.465-4.172 41.649-16.788 70.264l19.167 13.386s19.189-37.259 18.018-69.233c-.139-3.789-2.017-7.303-5.064-9.558l-9.926-7.345c-2.159-1.598-5.221-.192-5.407 2.486z" fill="#B77D85"/><path d="M239.536 388.313l22.794-20.079s-1.631-7.278-6.655-18.964c-9.333 5.91-17.264 13.386-22.965 19.524 2.607 6.268 4.926 12.77 6.826 19.519zM320.428 348.689c-1.904 5.956-4.14 12.042-6.816 18.111l19.168 13.386s3.66-7.105 7.685-17.772c-6.36-7.171-14.384-11.432-20.037-13.725z" fill="#9D5D65"/><path d="M229.414 485.653c31.736 2.787 99.15 2.238 127.41-47.386a19.134 19.134 0 002.314-12.087c-1.24-9.042-4.963-26.271-16.064-43.256-21.407-32.755-68.045-35.776-95.54-7.933-16.683 16.894-34.397 45.529-35.521 91.415-.243 9.977 7.462 18.375 17.401 19.247z" fill="#C4D5FF"/><path d="M329.039 406.401l-8.361 6.213c-1.045.776-2.516-.041-2.41-1.337l1.455-17.731c.121-1.462-.59-2.912-1.881-3.608-11.955-6.458-27.061-5.941-38.988 1.877-32.591 21.363-31.572 77.613-30.45 94.738 30.091.231 72.063-5.353 97.929-33.857-1.527-20.593-6.064-35.012-11.725-45.111a3.788 3.788 0 00-5.569-1.184z" fill="#7E9AEF"/><path d="M248.824 213.492a4.63 4.63 0 004.631 4.63h118.688a11.748 11.748 0 00-6.891-9.26H253.455a4.63 4.63 0 00-4.631 4.63z" fill="#9B9B6E"/></symbol></svg>